<svg width="276" height="50" viewBox="0 0 276 50" fill="none" xmlns="http://www.w3.org/2000/svg">
<path d="M0.11554 2.53534H29.546V11.9485H10.1489L10.934 11.1602V49.1491H0.11554V2.53534ZM9.95264 22.2079H26.1053V31.5631H9.95264V22.2079Z" fill="white"/>
<path d="M56.1824 46.9928C55.5358 47.6073 54.7968 48.1289 53.9655 48.5578C53.1458 48.9984 52.2337 49.3345 51.2292 49.5664C50.2247 49.8098 49.1625 49.9258 48.0425 49.9258C46.0451 49.9258 44.2439 49.6244 42.639 49.01C41.0341 48.3956 39.6717 47.5145 38.5749 46.3668C37.4665 45.2076 36.6121 43.7817 36.0001 42.0892C35.3882 40.3851 35.088 38.4491 35.088 36.2697V15.6118H45.8372V34.3106C45.8372 35.3539 45.9642 36.2581 46.2298 37.0232C46.4953 37.7883 46.8648 38.4259 47.3728 38.9476C47.8693 39.4693 48.4582 39.8518 49.1278 40.0953C49.7975 40.3387 50.548 40.4546 51.3793 40.4546C52.4184 40.4546 53.3305 40.246 54.1156 39.8286C54.9008 39.4113 55.5242 38.8549 56.0092 38.1593C56.4825 37.4638 56.8405 36.6639 57.0829 35.7712C57.3254 34.8786 57.4409 33.9744 57.4409 33.0586V15.6002H68.1901V49.1375H57.9027V44.9526C57.4293 45.6945 56.8636 46.3669 56.2054 46.9813L56.1824 46.9928Z" fill="white"/>
<path d="M86.398 20.3879C86.8714 19.5648 87.4371 18.8113 88.0952 18.1273C88.7418 17.4549 89.4923 16.8637 90.3467 16.3652C91.1895 15.8668 92.1478 15.4842 93.2101 15.2176C94.2723 14.9509 95.4153 14.8234 96.6277 14.8234C98.6713 14.8234 100.484 15.1132 102.066 15.7045C103.648 16.2957 104.998 17.1767 106.107 18.3476C107.215 19.5184 108.07 20.9559 108.682 22.6252C109.293 24.3061 109.594 26.2305 109.594 28.4099V49.1374H98.8445V30.3691C98.8445 29.3257 98.7175 28.4215 98.4519 27.6564C98.1863 26.8913 97.8169 26.2537 97.3435 25.732C96.8701 25.2104 96.2813 24.8278 95.5885 24.5844C94.8958 24.3409 94.1337 24.225 93.314 24.225C92.2749 24.225 91.3743 24.4453 90.6122 24.8742C89.8502 25.3147 89.2267 25.8827 88.7187 26.5783C88.2222 27.2738 87.8528 28.0621 87.6103 28.9316C87.3679 29.801 87.2524 30.6937 87.2524 31.6095V49.1374H76.5032V15.6001H86.7906V20.5038L86.398 20.3763V20.3879Z" fill="white"/>
<path d="M127.42 44.2454V49.1491H117.583V0.30957H128.263V19.9938L127.94 19.7967C128.333 19.1011 128.852 18.4404 129.499 17.8375C130.145 17.2347 130.907 16.6899 131.773 16.2378C132.639 15.7741 133.574 15.4263 134.567 15.1944C135.56 14.951 136.611 14.8351 137.696 14.8351C139.74 14.8351 141.668 15.2408 143.492 16.0407C145.317 16.8522 146.921 18.023 148.307 19.5764C149.693 21.1182 150.812 22.973 151.655 25.1293C152.498 27.2855 152.925 29.6967 152.925 32.3514C152.925 35.0061 152.498 37.4174 151.655 39.5736C150.812 41.7298 149.681 43.5846 148.272 45.1264C146.864 46.6683 145.224 47.8623 143.354 48.6854C141.483 49.5084 139.509 49.9258 137.431 49.9258C136.253 49.9258 135.145 49.7867 134.082 49.4969C133.02 49.207 132.027 48.8477 131.115 48.384C130.203 47.9319 129.395 47.3638 128.702 46.6799C128.009 46.0075 127.467 45.254 127.074 44.4193L127.397 44.2222L127.42 44.2454ZM135.11 40.5822C136.068 40.5822 136.992 40.3967 137.881 40.0257C138.77 39.6548 139.532 39.1099 140.156 38.3912C140.779 37.6724 141.287 36.8146 141.657 35.806C142.026 34.8091 142.211 33.6962 142.211 32.4674C142.211 31.2385 142.026 30.1373 141.657 29.1287C141.287 28.1317 140.791 27.2739 140.156 26.5783C139.521 25.8828 138.77 25.3379 137.881 24.9438C136.992 24.5496 136.068 24.3526 135.11 24.3526C134.071 24.3526 133.113 24.5496 132.247 24.9438C131.381 25.3379 130.607 25.8828 129.937 26.5783C129.268 27.2739 128.76 28.1202 128.402 29.1287C128.055 30.1373 127.882 31.2385 127.882 32.4674C127.882 33.6962 128.055 34.7975 128.402 35.806C128.748 36.8146 129.256 37.6724 129.937 38.3912C130.607 39.1099 131.392 39.6548 132.281 40.0257C133.17 40.3967 134.117 40.5822 135.11 40.5822Z" fill="white"/>
<path d="M182.841 16.1682C185.058 17.0608 186.951 18.278 188.544 19.8314C190.126 21.3732 191.373 23.2164 192.285 25.3611C193.197 27.4941 193.648 29.8242 193.648 32.363C193.648 34.9018 193.197 37.2203 192.285 39.3649C191.373 41.4979 190.126 43.3527 188.544 44.9177C186.963 46.4827 185.058 47.7231 182.841 48.6158C180.624 49.5084 178.199 49.9605 175.544 49.9605C172.888 49.9605 170.475 49.5084 168.281 48.6158C166.088 47.7231 164.194 46.4943 162.578 44.9177C160.973 43.3527 159.726 41.4979 158.837 39.3649C157.948 37.2319 157.498 34.9018 157.498 32.363C157.498 29.8242 157.948 27.5057 158.837 25.3611C159.726 23.228 160.973 21.3848 162.578 19.8314C164.183 18.2896 166.088 17.0608 168.281 16.1682C170.475 15.2755 172.888 14.8234 175.544 14.8234C178.199 14.8234 180.624 15.2755 182.841 16.1682ZM172.715 24.9321C171.826 25.3031 171.052 25.848 170.406 26.5667C169.759 27.2854 169.24 28.1201 168.87 29.0823C168.501 30.0445 168.316 31.1342 168.316 32.3514C168.316 33.5686 168.501 34.6699 168.87 35.6553C169.24 36.6406 169.748 37.4753 170.406 38.1709C171.052 38.8664 171.826 39.4113 172.715 39.8054C173.604 40.1996 174.551 40.3966 175.544 40.3966C176.537 40.3966 177.553 40.1996 178.442 39.8054C179.331 39.4113 180.104 38.8664 180.751 38.1709C181.398 37.4753 181.917 36.6291 182.287 35.6553C182.656 34.6699 182.841 33.5686 182.841 32.3514C182.841 31.1342 182.656 30.0445 182.287 29.0823C181.917 28.1201 181.409 27.2854 180.751 26.5667C180.104 25.848 179.331 25.3031 178.442 24.9321C177.553 24.5612 176.583 24.3757 175.544 24.3757C174.505 24.3757 173.604 24.5612 172.715 24.9321Z" fill="white"/>
<path d="M223.471 16.1682C225.688 17.0608 227.581 18.278 229.174 19.8314C230.756 21.3732 232.003 23.2164 232.915 25.3611C233.827 27.4941 234.278 29.8242 234.278 32.363C234.278 34.9018 233.827 37.2203 232.915 39.3649C232.003 41.4979 230.756 43.3527 229.174 44.9177C227.593 46.4827 225.688 47.7231 223.471 48.6158C221.254 49.5084 218.829 49.9605 216.174 49.9605C213.518 49.9605 211.105 49.5084 208.911 48.6158C206.718 47.7231 204.824 46.4943 203.208 44.9177C201.603 43.3527 200.356 41.4979 199.467 39.3649C198.578 37.2319 198.128 34.9018 198.128 32.363C198.128 29.8242 198.578 27.5057 199.467 25.3611C200.356 23.228 201.603 21.3848 203.208 19.8314C204.813 18.2896 206.718 17.0608 208.911 16.1682C211.105 15.2755 213.518 14.8234 216.174 14.8234C218.829 14.8234 221.254 15.2755 223.471 16.1682ZM213.345 24.9321C212.456 25.3031 211.682 25.848 211.036 26.5667C210.389 27.2854 209.87 28.1201 209.5 29.0823C209.131 30.0445 208.946 31.1342 208.946 32.3514C208.946 33.5686 209.131 34.6699 209.5 35.6553C209.87 36.6406 210.378 37.4753 211.036 38.1709C211.682 38.8664 212.456 39.4113 213.345 39.8054C214.234 40.1996 215.181 40.3966 216.174 40.3966C217.167 40.3966 218.183 40.1996 219.072 39.8054C219.961 39.4113 220.734 38.8664 221.381 38.1709C222.028 37.4753 222.547 36.6291 222.917 35.6553C223.286 34.6699 223.471 33.5686 223.471 32.3514C223.471 31.1342 223.286 30.0445 222.917 29.0823C222.547 28.1201 222.039 27.2854 221.381 26.5667C220.734 25.848 219.961 25.3031 219.072 24.9321C218.183 24.5612 217.213 24.3757 216.174 24.3757C215.135 24.3757 214.234 24.5612 213.345 24.9321Z" fill="white"/>
<path d="M240.663 49.149V0.23999H251.412V28.294L261.445 15.6117H274.203L262.415 30.0561L275.116 49.149H262.681L254.148 35.6205L251.412 38.8896V49.149H240.663Z" fill="white"/>
</svg>
